PathFileType	3	(X/Y/Z)	E:\ViconData\BIOM9541 2025\Week 7\Wed1100\Hanif deep squat 5 Squat 01.trc
DataRate	CameraRate	NumFrames	NumMarkers	Units	OrigDataRate	OrigDataStartFrame	OrigNumFrames
200.0	200.0	18	19	mm	200.0	850	1698	
Frame#	Time	C7			CLAV			RBAK			LASI			RASI			LPSI			RPSI			LTHI			LKNE			LTIB			LANK			LHEE			LTOE			RTHI			RKNE			RTIB			RANK			RHEE			RTOE			
		X1	Y1	Z1	X2	Y2	Z2	X3	Y3	Z3	X4	Y4	Z4	X5	Y5	Z5	X6	Y6	Z6	X7	Y7	Z7	X8	Y8	Z8	X9	Y9	Z9	X10	Y10	Z10	X11	Y11	Z11	X12	Y12	Z12	X13	Y13	Z13	X14	Y14	Z14	X15	Y15	Z15	X16	Y16	Z16	X17	Y17	Z17	X18	Y18	Z18	X19	Y19	Z19	
850	4.245	290.52356	788.4444	-1210.8823	154.1423	695.59662	-1196.3464	312.91782	710.64954	-1358.5798	290.787	355.0315	-1078.6548	274.5801	392.1822	-1338.676	454.1495	421.1292	-1164.8124	450.3131	418.2563	-1231.7327	210.16229	386.30246	-917.01666	97.944687	342.215	-852.66803	202.42566	175.16298	-905.26453	296.19043	63.273056	-981.08447	314.48184	56.110771	-1041.6801	158.33977	38.644524	-944.63617	331.76901	389.06937	-1405.2155	89.057762	325.02866	-1550.4355	123.30486	253.78513	-1539.5392	285.88657	69.993027	-1430.3251	309.80453	55.362595	-1354.6477	161.87341	39.500217	-1466.759	
851	4.25	290.5159	788.64252	-1210.8424	154.12086	695.76117	-1196.274	312.86188	710.81012	-1358.5435	290.7493	355.4067	-1078.6852	274.576	392.5722	-1338.7004	454.1284	421.4555	-1164.8435	450.2639	418.5617	-1231.7794	210.13818	386.3591	-917.01843	97.924805	342.14978	-852.66675	202.34715	175.12572	-905.24402	296.17749	63.254333	-981.12244	314.48428	56.069462	-1041.7168	158.32048	38.634892	-944.64142	331.73444	389.3222	-1405.257	89.09037	324.95383	-1550.5598	123.32916	253.70282	-1539.618	285.89941	69.942039	-1430.3287	309.78598	55.285412	-1354.6536	161.85876	39.461697	-1466.7275	
852	4.255	290.4635	788.79626	-1210.7438	154.11511	695.92041	-1196.2024	312.80386	710.95569	-1358.5004	290.8831	355.723	-1078.8233	274.9624	392.5176	-1338.9044	454.0941	421.7303	-1164.9191	450.2459	418.9404	-1232.0719	210.10872	386.40726	-917.05133	97.868896	342.10846	-852.61359	202.29102	175.04185	-905.28552	296.14972	63.198887	-981.14435	314.46475	55.983807	-1041.7463	158.26689	38.6115	-944.68311	331.6958	389.51755	-1405.2969	89.138466	324.82336	-1550.6676	123.36279	253.51349	-1539.6725	285.92953	69.827469	-1430.3115	309.78854	55.194794	-1354.7445	161.84789	39.410995	-1466.7529	
853	4.26	290.42859	789.05322	-1210.736	154.12483	696.1001	-1196.165	312.77695	711.18927	-1358.4896	290.6769	356.2771	-1078.8977	274.5264	393.3167	-1338.7593	454.0865	422.2077	-1165.0112	450.2252	419.385	-1232.2339	210.03789	386.45441	-917.07629	97.81916	342.00183	-852.6001	202.20525	174.95302	-905.29895	296.0856	63.169956	-981.13446	314.40585	55.889187	-1041.7549	158.23976	38.589264	-944.74664	331.58875	389.73709	-1405.3253	89.120224	324.6571	-1550.7467	123.36446	253.34036	-1539.7195	285.9234	69.736641	-1430.3025	309.76917	55.124275	-1354.7297	161.85864	39.377548	-1466.7845	
854	4.265	290.40585	789.41278	-1210.6809	154.14388	696.39435	-1196.1399	312.76782	711.51276	-1358.5001	290.6193	356.9138	-1078.8559	274.4568	393.7995	-1338.7836	454.0666	422.7772	-1165.0079	450.1782	419.9568	-1232.16	209.92563	386.46967	-917.07568	97.758041	341.89777	-852.58472	202.11494	174.80217	-905.33801	296.06519	63.217445	-981.12775	314.33026	55.827538	-1041.751	158.22	38.578846	-944.72235	331.43451	390.07278	-1405.3289	89.09491	324.57761	-1550.8123	123.33007	253.1823	-1539.7603	285.92035	69.683868	-1430.2648	309.75589	55.118664	-1354.6777	161.87013	39.398758	-1466.8353	
855	4.27	290.36536	789.85181	-1210.5762	154.10509	696.79883	-1196.0533	312.73895	711.94061	-1358.4601	290.763	357.7677	-1078.7254	274.9484	394.6777	-1339.2247	454.0143	423.4278	-1164.6858	450.1301	420.6016	-1231.8029	209.7372	386.52118	-916.93225	97.678406	341.74744	-852.54138	202.08589	174.61996	-905.4176	295.95804	63.269428	-981.0285	314.34781	55.88681	-1041.8024	158.23367	38.613472	-944.711	331.29797	390.54495	-1405.3693	89.038658	324.54254	-1550.8447	123.3112	253.11893	-1539.7784	285.93402	69.727211	-1430.2551	309.72644	55.09248	-1354.559	161.87013	39.394215	-1466.7867	
856	4.275	290.32489	790.26923	-1210.512	154.01939	697.30524	-1195.975	312.74063	712.37579	-1358.4225	290.5235	358.501	-1078.6187	274.428	395.3441	-1339.0776	453.9533	424.0551	-1164.5785	450.1155	421.3015	-1231.73	209.57838	386.64658	-916.74963	97.583908	341.60052	-852.51886	202.00883	174.49023	-905.44342	295.87469	63.280323	-981.00763	314.32919	55.899555	-1041.8549	158.21854	38.598301	-944.66168	331.16302	391.02463	-1405.4397	88.969322	324.47083	-1550.8385	123.26698	253.03387	-1539.7748	285.94537	69.694298	-1430.2455	309.73053	55.074238	-1354.5312	161.871	39.41914	-1466.8026	
857	4.28	290.2533	790.77576	-1210.3639	154.01134	697.68787	-1195.8906	312.70801	712.80029	-1358.3727	290.5024	359.1461	-1078.6026	274.3882	395.2812	-1338.8306	453.9544	424.8189	-1164.8367	450.0647	421.9653	-1231.8751	209.38385	386.75516	-916.66016	97.443466	341.46906	-852.435	201.95612	174.38019	-905.47156	295.80801	63.302502	-981.03558	314.30185	55.796684	-1041.8826	158.19231	38.561752	-944.65973	331.05023	391.48093	-1405.4906	88.875473	324.3064	-1550.8257	123.20176	252.82076	-1539.7456	285.95932	69.597069	-1430.2346	309.76517	54.947517	-1354.6045	161.87602	39.364273	-1466.7983	
858	4.285	290.25815	791.40906	-1210.3542	153.99803	698.26056	-1195.8715	312.80151	713.38843	-1358.3243	290.5291	360.0071	-1078.8144	274.5555	395.7727	-1338.9657	453.9238	425.6058	-1165.1184	450.023	422.8073	-1232.2365	209.17085	386.90842	-916.66675	97.294861	341.40588	-852.3374	201.84737	174.27522	-905.51532	295.71045	63.266083	-981.03156	314.25827	55.664639	-1041.8887	158.18587	38.520432	-944.72937	330.8595	391.94788	-1405.5206	88.755997	324.13843	-1550.782	123.11222	252.60362	-1539.7065	285.96561	69.477196	-1430.2289	309.82095	54.818832	-1354.7197	161.89932	39.315918	-1466.8329	
859	4.29	290.24902	792.16895	-1210.3439	153.94614	699.01068	-1195.8384	312.84113	714.14557	-1358.316	290.2695	361.032	-1078.7749	274.101	396.6376	-1338.821	453.8342	426.5302	-1165.1415	449.9278	423.7451	-1232.2679	208.92061	387.18976	-916.47241	97.148804	341.27069	-852.3125	201.81157	174.1866	-905.55255	295.61917	63.27877	-981.01428	314.23398	55.656643	-1041.9358	158.17682	38.51664	-944.71643	330.6077	392.55191	-1405.5557	88.575752	324.02582	-1550.7135	122.94137	252.47836	-1539.6355	285.94299	69.459862	-1430.215	309.82986	54.745216	-1354.7532	161.86761	39.279034	-1466.8011	
860	4.295	290.17633	793.01959	-1210.2528	153.90286	699.7475	-1195.7335	312.89484	714.90112	-1358.2875	290.1452	362.2914	-1078.5891	274.0222	397.4074	-1338.813	453.6832	427.6913	-1164.9923	449.8177	424.8846	-1232.079	208.61504	387.16623	-916.84552	96.976784	341.07632	-852.27643	201.77853	174.02625	-905.60431	295.52869	63.319153	-980.95667	314.23682	55.756992	-1042.0276	158.16548	38.525955	-944.66058	330.32791	393.19232	-1405.5894	88.385971	324.04297	-1550.6478	122.76299	252.44128	-1539.5267	285.92896	69.550903	-1430.2003	309.797	54.785614	-1354.6389	161.85251	39.310951	-1466.7837	
861	4.3	290.1861	793.96295	-1210.2358	153.89961	700.62073	-1195.6843	312.94394	715.83942	-1358.2123	289.9496	363.67	-1078.4063	273.7993	398.429	-1338.845	453.5458	428.9468	-1164.8556	449.6717	426.0874	-1231.7992	208.2372	387.51392	-916.52985	96.790169	340.95129	-852.23834	201.72282	173.87488	-905.68439	295.466	63.375622	-980.94501	314.2012	55.81588	-1042.082	158.17273	38.565781	-944.65399	330.07156	394.07504	-1405.691	88.156837	324.01947	-1550.5424	122.56525	252.40475	-1539.3958	285.90738	69.623581	-1430.1954	309.73782	54.809746	-1354.5354	161.84047	39.327229	-1466.7498	
862	4.305	290.16049	794.94055	-1210.1687	153.92412	701.54517	-1195.7915	313.06073	716.73962	-1358.2083	289.8056	365.1314	-1078.513	273.7408	399.6495	-1339.0903	453.4167	430.2442	-1164.9685	449.5309	427.3572	-1231.8911	207.93016	387.72977	-916.68585	96.537033	340.83563	-852.20941	201.64243	173.79295	-905.71204	295.42358	63.334576	-980.95142	314.15149	55.770374	-1042.0847	158.17751	38.543739	-944.66718	329.77914	394.75436	-1405.7584	87.912735	323.90671	-1550.3855	122.39093	252.27881	-1539.2798	285.89929	69.59153	-1430.1643	309.72388	54.760643	-1354.547	161.83966	39.307259	-1466.7555	
863	4.31	290.19733	796.07385	-1210.2032	154.00078	702.63904	-1195.8842	313.09033	717.81281	-1358.1357	289.7728	366.5181	-1078.4846	273.9003	399.917	-1338.9934	453.23	431.65	-1165.0588	449.3973	428.7509	-1232.2029	207.5237	388.0239	-916.84033	96.276764	340.76093	-852.19318	201.53352	173.72423	-905.74481	295.4469	63.364254	-981.03571	314.0798	55.697079	-1042.0731	158.15265	38.533081	-944.72375	329.42166	395.58075	-1405.8013	87.670036	323.78043	-1550.2014	122.22952	252.13629	-1539.1227	285.87735	69.540863	-1430.129	309.70584	54.709869	-1354.6162	161.82541	39.253967	-1466.7561	
864	4.315	290.18515	797.27081	-1210.1101	154.0096	703.81195	-1195.8527	313.2561	719.02716	-1358.0798	289.4955	368.221	-1078.3426	273.4977	400.9594	-1338.8259	453.0648	433.2685	-1165.088	449.2322	430.3258	-1232.1337	207.09291	388.4838	-916.77472	96.043488	340.66724	-852.20367	201.42371	173.70363	-905.74066	295.3855	63.365856	-981.00916	314.01138	55.677299	-1042.0986	158.11838	38.490982	-944.65552	329.09323	396.50513	-1405.8965	87.400513	323.67349	-1550.0273	122.04091	252.04309	-1538.9711	285.85245	69.515488	-1430.1006	309.69806	54.672047	-1354.6194	161.79839	39.245522	-1466.7819	
865	4.32	290.16458	798.58142	-1210.0237	153.99112	705.20966	-1195.7822	313.20593	720.25043	-1357.9656	289.2617	370.1251	-1078.2147	273.2398	402.2709	-1338.8016	452.8654	435.0427	-1164.9796	449.0801	432.0222	-1232.1224	206.65866	388.89496	-916.81567	95.754936	340.51135	-852.22156	201.34915	173.60184	-905.81335	295.34549	63.397816	-981.00574	313.97354	55.691738	-1042.1158	158.09833	38.478867	-944.60773	328.64407	397.65292	-1405.9714	87.106735	323.67358	-1549.866	121.79605	252.00615	-1538.7538	285.78979	69.545586	-1430.0771	309.65851	54.644279	-1354.5573	161.75171	39.224232	-1466.7458	
866	4.325	290.17621	800.06238	-1209.9546	153.97975	706.70642	-1195.7147	313.20322	721.69946	-1357.8516	289.0213	372.1195	-1078.0267	272.9752	403.5698	-1338.7532	452.6854	436.9116	-1164.9473	448.879	433.8135	-1231.9163	206.1481	389.31464	-916.63635	95.458298	340.38202	-852.22095	201.27112	173.55374	-905.85193	295.298	63.425556	-980.99646	313.94159	55.729469	-1042.1437	158.10493	38.478863	-944.54755	328.22855	398.58932	-1405.9396	86.800079	323.6442	-1549.7017	121.61594	252.0186	-1538.5989	285.7626	69.603378	-1430.0479	309.63074	54.650177	-1354.4948	161.74217	39.268166	-1466.751	
867	4.33	290.20691	801.66174	-1209.8903	153.98544	708.30225	-1195.7545	313.29514	723.30774	-1357.8378	288.8982	374.2394	-1077.8796	272.9317	404.7157	-1338.7179	452.4936	438.8954	-1164.9132	448.7427	435.8103	-1231.9324	205.63303	389.78287	-916.64667	95.164772	340.34161	-852.24957	201.18979	173.51183	-905.90094	295.31549	63.459301	-981.03656	313.90045	55.746235	-1042.1426	158.10516	38.485806	-944.5401	327.7713	399.86887	-1406.035	86.526291	323.6326	-1549.5625	121.43255	251.95747	-1538.439	285.76559	69.642921	-1430.0326	309.60995	54.6432	-1354.4413	161.72592	39.26696	-1466.7728	
